<?xml version="1.0" encoding="UTF-8" standalone="no"?>
<!DOCTYPE svg PUBLIC "-//W3C//DTD SVG 1.1//EN" "http://www.w3.org/Graphics/SVG/1.1/DTD/svg11.dtd">
<svg width="100%" height="100%" viewBox="0 0 3200 2401" version="1.1" xmlns="http://www.w3.org/2000/svg" xmlns:xlink="http://www.w3.org/1999/xlink" xml:space="preserve" xmlns:serif="http://www.serif.com/" style="fill-rule:evenodd;clip-rule:evenodd;stroke-linecap:round;stroke-linejoin:round;stroke-miterlimit:1.5;">
    <g transform="matrix(1,0,0,1,0,-1395)">
        <g id="SignUpSvg" transform="matrix(4,0,0,4,0,1395.31)">
            <rect x="0" y="0" width="800" height="600" style="fill:none;"/>
            <clipPath id="_clip1">
                <rect x="0" y="0" width="800" height="600"/>
            </clipPath>
            <g clip-path="url(#_clip1)">
                <g transform="matrix(0.25,0,0,0.25,0,-348.826)">
                    <rect x="0" y="1395.31" width="3200" height="2400" style="fill:white;"/>
                </g>
                <g transform="matrix(-0.237979,0.115413,-0.0686167,-0.141486,1370.72,872.911)">
                    <path d="M0,2891.75C103.034,2902.82 197.631,2595.3 296.447,2595.3C395.262,2595.3 494.078,2891.75 592.893,2891.75C691.709,2891.75 790.524,2595.3 889.34,2595.3C988.156,2595.3 1086.97,2891.75 1185.79,2891.75C1284.6,2891.75 1383.42,2595.3 1482.23,2595.3C1581.05,2595.3 1679.86,2891.75 1778.68,2891.75C1877.5,2891.75 1976.31,2595.3 2075.13,2595.3C2173.94,2595.3 2272.76,2891.75 2371.57,2891.75C2470.39,2891.75 2569.2,2595.3 2668.02,2595.3C2766.84,2595.3 2865.65,2891.75 2964.47,2891.75C3063.28,2891.75 3260.91,2595.3 3260.91,2595.3L3676.72,1395.31L1354.35,-572.175L206.582,1081.27L-321.76,2528.88C-321.76,2528.88 -103.034,2880.68 0,2891.75Z" style="fill:rgb(25,215,181);"/>
                </g>
                <g transform="matrix(0.25,0,0,0.25,0,-348.826)">
                    <path d="M-257.468,3352.04C205.812,3297.29 732.418,3239.74 920.799,3352.04C1109.18,3464.34 1095.98,4214.82 872.818,4025.83C628.877,3819.24 -374.532,2402.94 -331.273,1948.28C-288.014,1493.62 788.914,1357.55 1132.37,1297.85C1350.69,1259.9 1581.75,1424.92 1729.48,1590.09C2115.03,2021.14 2194.64,3690.4 2053.19,3871.64C1939.24,4017.64 1119.33,2861.62 1334.54,2628.78C1549.75,2395.94 3216.27,2395.94 3418.13,2628.78C3619.98,2861.62 2667.17,4180.8 2545.68,4025.83C2424.19,3870.85 3048.72,2353.95 3005.19,1834.8C2980.52,1540.56 2562.05,810.217 2284.48,910.943C1952.17,1031.54 1154.97,2170.56 695.327,2422.48C353.705,2609.72 -302.277,2609.92 -473.377,2422.48C-644.477,2235.04 -673.624,1137.94 -331.273,1297.85C8.191,1456.41 1073.15,2107.81 1699.27,2739.07C2152.24,3195.77 2894.42,3466 3200,3524.63C3491.41,3580.54 3973.24,3194.66 3864.19,2931.94C3755.14,2669.22 2646.67,2264.58 2545.68,1948.28C2444.68,1631.97 3394.25,992.005 3258.22,1034.1C3122.18,1076.2 2005.85,1796.99 1729.48,2200.86C1491.7,2548.35 1798.42,3369.37 1600,3457.36C1401.58,3545.36 872.818,2785 872.818,2892.73C872.818,3000.46 1660.86,3887.58 1600,4103.75C1539.14,4319.92 201.618,4366.04 173.768,4025.83C145.917,3685.61 1316.39,2438.94 1432.9,2062.45C1495.3,1860.8 1070.77,1693.61 872.818,1766.92C591.09,1871.26 119.294,2381.31 -257.468,2688.5" style="fill:none;stroke:rgb(0,215,181);stroke-width:29px;"/>
                </g>
                <g transform="matrix(0.25,0,0,0.25,0,-348.826)">
                    <circle cx="675.98" cy="1881.64" r="244.819" style="fill:white;stroke:rgb(0,215,181);stroke-width:29px;"/>
                </g>
                <g transform="matrix(0.25,0,0,0.25,52.3161,-93.3252)">
                    <circle cx="675.98" cy="1881.64" r="244.819" style="fill:white;stroke:rgb(0,215,181);stroke-width:29px;"/>
                </g>
                <g transform="matrix(0.25,0,0,0.25,-122.41,154.328)">
                    <circle cx="675.98" cy="1881.64" r="244.819" style="fill:white;stroke:rgb(0,215,181);stroke-width:29px;"/>
                </g>
                <g transform="matrix(0.25,0,0,0.25,252.541,-445.204)">
                    <circle cx="675.98" cy="1881.64" r="244.819" style="fill:white;stroke:rgb(0,215,181);stroke-width:29px;"/>
                </g>
                <g transform="matrix(0.25,0,0,0.25,504.64,-3.23614)">
                    <circle cx="675.98" cy="1881.64" r="244.819" style="fill:white;stroke:rgb(0,215,181);stroke-width:29px;"/>
                </g>
                <g transform="matrix(0.25,0,0,0.25,326.954,144.754)">
                    <circle cx="675.98" cy="1881.64" r="244.819" style="fill:white;stroke:rgb(0,215,181);stroke-width:29px;"/>
                </g>
                <g transform="matrix(0.25,0,0,0.25,344.302,-207.536)">
                    <circle cx="675.98" cy="1881.64" r="244.819" style="fill:white;stroke:rgb(0,215,181);stroke-width:29px;"/>
                </g>
                <g transform="matrix(0.25,0,0,0.25,582.303,-360.536)">
                    <circle cx="675.98" cy="1881.64" r="244.819" style="fill:white;stroke:rgb(0,215,181);stroke-width:29px;"/>
                </g>
            </g>
        </g>
    </g>
</svg>
